<?xml version="1.0" standalone="no"?><!DOCTYPE svg PUBLIC "-//W3C//DTD SVG 1.1//EN" "http://www.w3.org/Graphics/SVG/1.1/DTD/svg11.dtd"><svg id="logo" viewBox="0 0 1000 1000" version="1.1" xmlns="http://www.w3.org/2000/svg" p-id="24691" xmlns:xlink="http://www.w3.org/1999/xlink" width="100" height="100"><defs><style type="text/css"></style></defs><title>My logo</title><path d="M853.108 196.176c-156.946-301.262-299.461-95.607-299.461-95.607-16.235 27.056-38.044 1.803-38.044 1.803-54.263-72.159-123.010-70.355-123.010-70.355-146.649-1.805-172.676 151.533-172.676 151.533-186.083 5.412-185.812 228.223-185.812 228.223-16.234 136.217 66.745 246.457 66.745 246.457 99.22 355.619 414.753 333.501 414.753 333.501 371.478-27.063 395.232-322.011 395.232-322.011 81.181-114.551 86.589-239.024 86.589-239.024-12.625-212.87-144.318-234.518-144.318-234.518v0zM666.83 115.43c44.086 0 79.827 47.679 79.827 106.507 0 58.811-35.741 106.507-79.827 106.507-44.090 0-79.828-47.697-79.828-106.507 0.005-58.827 35.744-106.507 79.828-106.507v0zM394.41 115.43c44.092 0 79.833 47.679 79.833 106.507 0 58.811-35.739 106.507-79.833 106.507-44.070 0-79.803-47.697-79.803-106.507 0-58.827 35.733-106.507 79.803-106.507v0zM200.47 501.609c-44.092 0-79.825-47.678-79.825-106.503 0-58.827 35.733-106.51 79.825-106.51 44.084 0 79.823 47.682 79.823 106.51 0 58.826-35.739 106.505-79.823 106.505v0zM743.103 850.425c-42.105 25.524-98.37 17.046-150.977-16.869-32.757-14.342-87.152-28.937-143.341-3.988-10.355 7.075-20.85 13.191-31.389 18.236-44.81 21.506-90.196 24.067-125.594 2.62-70.95-43.028-74.883-166.253-8.782-275.252 17.35-28.61 37.793-53.398 59.815-73.62l0.199-0.178 0.054-0.075 0.094-0.057 0.053-0.053c32.993-30.194 69.471-50.167 104.25-57.38 43.767-13.426 98.189-18.041 157.344 4.617 53.014 17.119 107.929 62.197 147.062 126.745 66.097 109.001 62.161 232.226-8.788 275.254v0zM845.425 501.555c-44.071 0-79.825-47.682-79.825-106.508s35.753-106.503 79.825-106.503c44.086 0 79.825 47.678 79.825 106.505s-35.739 106.508-79.825 106.508v0zM845.425 501.555z" p-id="24692" fill="#02b3e4"></path></svg>